<?xml version="1.0" encoding="UTF-8" standalone="no"?>
<!-- Created with Inkscape (http://www.inkscape.org/) -->

<svg
   xmlns:dc="http://purl.org/dc/elements/1.1/"
   xmlns:cc="http://creativecommons.org/ns#"
   xmlns:rdf="http://www.w3.org/1999/02/22-rdf-syntax-ns#"
   xmlns:svg="http://www.w3.org/2000/svg"
   xmlns="http://www.w3.org/2000/svg"
   xmlns:sodipodi="http://sodipodi.sourceforge.net/DTD/sodipodi-0.dtd"
   xmlns:inkscape="http://www.inkscape.org/namespaces/inkscape"
   width="235"
   height="108"
   viewBox="0 0 62.177083 28.575001"
   version="1.1"
   id="svg1245"
   inkscape:version="0.92.3 (2405546, 2018-03-11)"
   sodipodi:docname="kitchen-stencil.svg">
  <defs
     id="defs1239" />
  <sodipodi:namedview
     id="base"
     pagecolor="#ffffff"
     bordercolor="#666666"
     borderopacity="1.0"
     inkscape:pageopacity="0.0"
     inkscape:pageshadow="2"
     inkscape:zoom="2.8"
     inkscape:cx="203.77505"
     inkscape:cy="31.389379"
     inkscape:document-units="px"
     inkscape:current-layer="layer1"
     showgrid="false"
     units="px"
     inkscape:window-width="1865"
     inkscape:window-height="1025"
     inkscape:window-x="55"
     inkscape:window-y="27"
     inkscape:window-maximized="1" />
  <metadata
     id="metadata1242">
    <rdf:RDF>
      <cc:Work
         rdf:about="">
        <dc:format>image/svg+xml</dc:format>
        <dc:type
           rdf:resource="http://purl.org/dc/dcmitype/StillImage" />
        <dc:title></dc:title>
      </cc:Work>
    </rdf:RDF>
  </metadata>
  <g
     inkscape:label="Capa 1"
     inkscape:groupmode="layer"
     id="layer1"
     transform="translate(0,-268.42499)">
    <g
       transform="translate(-3.0876829,35.320983)"
       id="g3520">
      <g
         style="fill:#e8e8e3;fill-opacity:1"
         transform="matrix(0.66581385,-0.08747503,0.08747503,0.66581385,37.439818,68.773888)"
         id="g2861">
        <path
           style="fill:#e8e8e3;fill-opacity:1;stroke-width:0.05284958"
           inkscape:connector-curvature="0"
           d="m -48.124963,258.51722 1.691178,-0.005 0.887683,13.10392 0.0095,2.95956 -3.382355,0.0109 -0.0095,-2.95956 z"
           id="path2440" />
        <path
           style="fill:#e8e8e3;fill-opacity:1;stroke-width:0.05284958"
           inkscape:connector-curvature="0"
           d="m -46.809055,273.31095 -0.845588,0.003 -0.0041,-1.26838 0.845589,-0.003 z"
           id="path2442" />
        <path
           style="fill:#e8e8e3;fill-opacity:1;stroke-width:0.05284958"
           inkscape:connector-curvature="0"
           d="m -48.970552,258.51993 -0.001,-0.32021 a 4.3305503,4.3305503 0 0 0 -1.278218,-3.05807 4.3305503,4.3305503 0 0 1 -1.278218,-3.05807 l -0.0065,-2.01139 8.45589,-0.0272 0.0065,2.01139 a 4.3305503,4.3305503 0 0 1 -1.258549,3.06622 4.3305503,4.3305503 0 0 0 -1.258549,3.06622 l 10e-4,0.32021 z"
           id="path2452" />
        <g
           style="fill:#e8e8e3;fill-opacity:1"
           id="g2462"
           transform="matrix(-0.05284931,1.6973166e-4,-1.6973166e-4,-0.05284931,-34.117073,275.80698)">
          <path
             style="fill:#e8e8e3;fill-opacity:1"
             inkscape:connector-curvature="0"
             d="m 192,424 h 16 v 40 h -16 z"
             id="path2454" />
          <path
             style="fill:#e8e8e3;fill-opacity:1"
             inkscape:connector-curvature="0"
             d="m 224,408 h 16 v 56 h -16 z"
             id="path2456" />
          <path
             style="fill:#e8e8e3;fill-opacity:1"
             inkscape:connector-curvature="0"
             d="m 256,408 h 16 v 56 h -16 z"
             id="path2458" />
          <path
             style="fill:#e8e8e3;fill-opacity:1"
             inkscape:connector-curvature="0"
             d="m 288,424 h 16 v 40 h -16 z"
             id="path2460" />
        </g>
      </g>
      <g
         style="fill:#e8e8e3;fill-opacity:1"
         transform="matrix(0.67153553,0,0,0.67153553,70.602203,71.626682)"
         id="g2851">
        <path
           style="fill:#e8e8e3;fill-opacity:1;stroke-width:0.05284958"
           inkscape:connector-curvature="0"
           d="m -39.669073,258.49006 -0.803496,13.10934 0.0095,2.95956 3.382356,-0.0109 -0.0095,-2.95956 -0.887682,-13.10391 -0.0027,-0.84559 -1.691178,0.005 z"
           id="path2444" />
        <path
           style="fill:#e8e8e3;fill-opacity:1;stroke-width:0.05284958"
           inkscape:connector-curvature="0"
           d="m -38.353165,273.28379 -0.845589,0.003 -0.0041,-1.26839 0.845589,-0.003 z"
           id="path2446" />
        <rect
           style="fill:#e8e8e3;fill-opacity:1;stroke-width:0.05284958"
           height="8.4559336"
           rx="2.9595766"
           width="5.9191532"
           x="36.693867"
           y="-258.36133"
           id="rect2464"
           transform="rotate(179.81599)" />
        <path
           style="fill:#e8e8e3;fill-opacity:1;stroke-width:0.05284958"
           inkscape:connector-curvature="0"
           d="m -38.846568,251.29984 0.845589,-0.003 0.0027,0.84559 -0.845589,0.003 a 0.84656205,0.84656205 0 0 0 -0.842873,0.8483 l 0.0095,2.95956 -0.845589,0.003 -0.0095,-2.95956 a 1.6931077,1.6931077 0 0 1 1.685746,-1.69661 z"
           id="path2466" />
      </g>
      <g
         style="fill:#e8e8e3;fill-opacity:1"
         transform="matrix(0.64161819,0.19820712,-0.19820712,0.64161819,98.077312,89.08647)"
         id="g2867">
        <path
           style="fill:#e8e8e3;fill-opacity:1;stroke-width:0.05284958"
           inkscape:connector-curvature="0"
           d="m -52.789281,254.30421 -0.0027,-0.84559 a 3.3823701,3.3823701 0 0 0 -3.393216,-3.37149 h -6e-6 a 3.3823701,3.3823701 0 0 0 -3.37149,3.39321 l 0.0027,0.84559 z"
           id="path2438" />
        <path
           style="fill:#e8e8e3;fill-opacity:1;stroke-width:0.05284958"
           inkscape:connector-curvature="0"
           d="m -57.009078,256.85455 1.691178,-0.005 0.893113,14.79509 0.0095,2.95956 -3.382355,0.0109 -0.0095,-2.95957 z"
           id="path2448" />
        <path
           style="fill:#e8e8e3;fill-opacity:1;stroke-width:0.05284958"
           inkscape:connector-curvature="0"
           d="m -55.687739,273.33946 -0.845589,0.003 -0.0041,-1.26838 0.845589,-0.003 z"
           id="path2450" />
        <path
           style="fill:#e8e8e3;fill-opacity:1;stroke-width:0.05284958"
           inkscape:connector-curvature="0"
           d="m -58.281535,255.59024 a 1.26839,1.26839 0 0 1 -1.272457,-1.26431 1.26839,1.26839 0 0 1 1.26431,-1.27245 l 4.227944,-0.0136 a 1.26839,1.26839 0 0 1 1.272457,1.26431 1.26839,1.26839 0 0 1 -1.26431,1.27245 1.26839,1.26839 0 0 0 -1.264309,1.27246 l -1.691178,0.005 a 1.26839,1.26839 0 0 0 -1.272457,-1.26431 z"
           id="path2468" />
      </g>
      <g
         style="fill:#e8e8e3;fill-opacity:1"
         transform="matrix(-0.0041123,0.03384341,-0.03384341,-0.0041123,67.56305,239.89327)"
         id="g2514">
        <path
           style="fill:#e8e8e3;fill-opacity:1"
           inkscape:connector-curvature="0"
           d="M 488,52.8501 A 28.83465,28.83465 0 0 1 480.5,72.25 L 358.48,206.48 328,240 272,184 305.52,153.52 439.75,31.5 A 28.84834,28.84834 0 0 1 488,52.8501 Z"
           id="path2495" />
        <path
           style="fill:#e8e8e3;fill-opacity:1"
           inkscape:connector-curvature="0"
           d="M 358.48,206.48 328,240 272,184 305.52,153.52 Z"
           id="path2497" />
        <path
           style="fill:#e8e8e3;fill-opacity:1"
           inkscape:connector-curvature="0"
           d="m 459.15234,16 a 36.77411,36.77411 0 0 0 -24.78613,9.582 L 266.61816,178.08008 a 8.00113,8.00113 0 0 0 -0.27539,11.57715 l 8.00489,8.00488 -132.7959,63.51074 A 322.706,322.706 0 0 0 64.86523,312.459 L 49.165,326.58887 A 100.32964,100.32964 0 0 0 16,401.05566 94.36882,94.36882 0 0 0 30.04639,450.70093 c 0.12036,0.258 0.22509,0.52075 0.34912,0.77759 l 0.105,-0.0508 a 95.68784,95.68784 0 0 0 30.07178,30.07178 l -0.05079,0.105 c 0.25684,0.124 0.51954,0.22876 0.77759,0.34912 A 94.86279,94.86279 0 0 0 174.02053,472.01857 321.23132,321.23132 0 0 0 250.59375,370.417 l 63.73242,-132.77637 8.0166,8.01661 A 8.001,8.001 0 0 0 328,248 c 0.0635,0 0.127,-0.001 0.19043,-0.002 a 8.00515,8.00515 0 0 0 5.72949,-2.61621 L 486.417,77.63379 A 36.84713,36.84713 0 0 0 459.15234,16 Z M 89.75781,471.97119 a 35.42075,35.42075 0 0 0 4.53125,-4.44775 L 261.46094,270.5 231.80859,319.21484 A 741.15594,741.15594 0 0 1 122.91113,457.77441 48.21875,48.21875 0 0 1 89.75781,471.97119 Z m -49.7251,-49.73364 a 58.93161,58.93161 0 0 1 21.23487,-44.21411 l 31.4209,-26.18457 a 742.9004,742.9004 0 0 1 84.27246,-60.73926 L 238.85205,252.78613 44.47754,417.71 a 35.43349,35.43349 0 0 0 -4.44483,4.52755 z m 19.83545,-83.7561 15.7002,-14.12989 a 306.73469,306.73469 0 0 1 72.88574,-48.74511 l 101.73438,-48.65528 -81.64942,50.54492 a 758.80463,758.80463 0 0 0 -86.09277,62.05176 l -31.4209,26.18457 A 75.11325,75.11325 0 0 0 33.09253,387.57764 84.32339,84.32339 0 0 1 59.86816,338.48145 Z M 48,448.63623 v -3.978 a 19.30565,19.30565 0 0 1 6.82812,-14.748 L 234.75732,277.24275 82.08887,457.17285 A 19.30447,19.30447 0 0 1 67.3418,464 h -3.978 A 79.62367,79.62367 0 0 1 48,448.63623 Z m 188.16992,-85.14307 a 305.32073,305.32073 0 0 1 -72.77832,96.56641 78.8487,78.8487 0 0 1 -42.53784,19.30273 64.89571,64.89571 0 0 0 13.37183,-10.27343 757.252,757.252 0 0 0 111.251,-141.55567 l 37.62158,-61.80737 z m 91.55469,-135.083 -44.13477,-44.13477 21.67041,-19.70039 42.16455,42.1645 z M 474.57812,66.87016 358.20068,194.88623 317.11377,153.79932 445.12988,37.4209 a 20.847,20.847 0 0 1 29.44824,29.44922 z"
           id="path2499" />
        <circle
           style="fill:#e8e8e3;fill-opacity:1"
           cx="456"
           cy="56"
           r="8"
           id="circle2501" />
      </g>
      <g
         style="fill:#e8e8e3;fill-opacity:1"
         transform="matrix(0.62596801,-0.24315431,0.24315431,0.62596801,-9.895109,111.04759)"
         id="g2922">
        <path
           id="path2526"
           d="m -48.556263,194.51779 h -2.927922 V 186.71 c 0,-0.80859 0.655366,-1.46396 1.463961,-1.46396 v 0 c 0.808595,0 1.463961,0.65537 1.463961,1.46396 z"
           style="fill:#e8e8e3;fill-opacity:1;stroke-width:0.4879871"
           inkscape:connector-curvature="0" />
        <path
           id="path2530"
           d="m -49.532237,211.59734 v 0 l -1.951948,-2.43993 v -14.63962 h 4.879871 v 0.37478 c 0,8.61248 -0.995982,12.19724 -2.927923,16.70477 z"
           style="fill:#e8e8e3;fill-opacity:1;stroke-width:0.4879871"
           inkscape:connector-curvature="0" />
        <path
           id="path2532"
           d="m -50.020224,198.90968 c -0.269857,0 -0.487987,-0.21813 -0.487987,-0.48799 v -2.43993 c 0,-0.26986 0.21813,-0.48799 0.487987,-0.48799 0.269857,0 0.487987,0.21813 0.487987,0.48799 v 2.43993 c 0,0.26986 -0.21813,0.48799 -0.487987,0.48799 z"
           style="fill:#e8e8e3;fill-opacity:1;stroke-width:0.4879871"
           inkscape:connector-curvature="0" />
      </g>
      <g
         style="fill:#e8e8e3;fill-opacity:1"
         transform="matrix(0.67153553,0,0,0.67153553,61.210697,114.01538)"
         id="g2917">
        <path
           id="path2524"
           d="m -58.803992,194.02981 h -2.927923 V 186.71 c 0,-0.80859 0.655367,-1.46396 1.463962,-1.46396 v 0 c 0.808594,0 1.463961,0.65537 1.463961,1.46396 z"
           style="fill:#e8e8e3;fill-opacity:1;stroke-width:0.4879871"
           inkscape:connector-curvature="0" />
        <path
           id="path2528"
           d="m -56.14251,210.13338 h -6.565379 v -16.10357 h 6.565379 c 0.416741,0 0.754428,0.33768 0.754428,0.75443 v 14.59423 c 0,0.41723 -0.337687,0.75491 -0.754428,0.75491 z"
           style="fill:#e8e8e3;fill-opacity:1;stroke-width:0.4879871"
           inkscape:connector-curvature="0" />
        <path
           id="path2534"
           d="m -61.243927,198.90968 c -0.269857,0 -0.487988,-0.21813 -0.487988,-0.48799 v -2.43993 c 0,-0.26986 0.218131,-0.48799 0.487988,-0.48799 0.269856,0 0.487987,0.21813 0.487987,0.48799 v 2.43993 c 0,0.26986 -0.218131,0.48799 -0.487987,0.48799 z"
           style="fill:#e8e8e3;fill-opacity:1;stroke-width:0.4879871"
           inkscape:connector-curvature="0" />
        <rect
           id="rect2540"
           height="16.103575"
           width="0.9759742"
           style="fill:#e8e8e3;fill-opacity:1;stroke-width:0.4879871"
           y="194.0298"
           x="-57.828018" />
      </g>
      <g
         style="fill:#e8e8e3;fill-opacity:1"
         transform="matrix(0.60142342,0.29874712,-0.29874712,0.60142342,118.3614,140.01916)"
         id="g2927">
        <path
           id="path2536"
           d="m -38.796521,194.02981 h -2.927922 V 186.71 c 0,-0.80859 0.655366,-1.46396 1.463961,-1.46396 v 0 c 0.808595,0 1.463961,0.65537 1.463961,1.46396 z"
           style="fill:#e8e8e3;fill-opacity:1;stroke-width:0.4879871"
           inkscape:connector-curvature="0" />
        <path
           id="path2538"
           d="m -39.772495,211.89111 v 0 0 c -1.586934,-2.2218 -2.439936,-4.88377 -2.439936,-7.61357 v -10.24773 h 4.391884 v 0 c 0,3.16752 -1.951948,4.92964 -1.951948,17.8613 z"
           style="fill:#e8e8e3;fill-opacity:1;stroke-width:0.4879871"
           inkscape:connector-curvature="0" />
        <path
           id="path2542"
           d="m -40.748469,198.90968 c -0.269857,0 -0.487987,-0.21813 -0.487987,-0.48799 v -2.43993 c 0,-0.26986 0.21813,-0.48799 0.487987,-0.48799 0.269857,0 0.487987,0.21813 0.487987,0.48799 v 2.43993 c 0,0.26986 -0.21813,0.48799 -0.487987,0.48799 z"
           style="fill:#e8e8e3;fill-opacity:1;stroke-width:0.4879871"
           inkscape:connector-curvature="0" />
      </g>
    </g>
  </g>
</svg>
